<?xml version="1.0" encoding="UTF-8" standalone="no"?>
<!-- Created with Inkscape (http://www.inkscape.org/) -->

<svg xmlns:dc="http://purl.org/dc/elements/1.1/" xmlns:cc="http://creativecommons.org/ns#" xmlns:rdf="http://www.w3.org/1999/02/22-rdf-syntax-ns#" xmlns:svg="http://www.w3.org/2000/svg" xmlns="http://www.w3.org/2000/svg" xmlns:sodipodi="http://sodipodi.sourceforge.net/DTD/sodipodi-0.dtd" xmlns:inkscape="http://www.inkscape.org/namespaces/inkscape" width="500" height="217.45813" id="svg4084" version="1.1" inkscape:version="0.48.0 r9654" sodipodi:docname="New document 4" data-lt-installed="true">
  <defs id="defs4086">
    <clipPath clipPathUnits="userSpaceOnUse" id="clipPath3237">
      <path inkscape:connector-curvature="0" d="M 0,864 1296,864 1296,0 0,0 0,864 z" id="path3239"/>
    </clipPath>
  </defs>
  <sodipodi:namedview id="base" pagecolor="#ffffff" bordercolor="#666666" borderopacity="1.0" inkscape:pageopacity="0.0" inkscape:pageshadow="2" inkscape:zoom="0.98994949" inkscape:cx="201.57692" inkscape:cy="48.515002" inkscape:document-units="px" inkscape:current-layer="layer1" showgrid="false" fit-margin-top="0" fit-margin-left="0" fit-margin-right="0" fit-margin-bottom="0" inkscape:window-width="1366" inkscape:window-height="716" inkscape:window-x="-8" inkscape:window-y="-8" inkscape:window-maximized="1"/>
  <metadata id="metadata4089">
    <rdf:RDF>
      <cc:Work rdf:about="">
        <dc:format>image/svg+xml</dc:format>
        <dc:type rdf:resource="http://purl.org/dc/dcmitype/StillImage"/>
        <dc:title/>
      </cc:Work>
    </rdf:RDF>
  </metadata>
  <g inkscape:label="Layer 1" inkscape:groupmode="layer" id="layer1" transform="translate(-160.80091,-345.16497)">
    <g id="g3519" transform="matrix(16.441964,0,0,-16.441964,474.54962,369.92657)">
      <path d="m 0,0 c 0,-0.83 0.7,-1.506 1.561,-1.506 0.895,0 1.596,0.663 1.596,1.506 0,0.845 -0.701,1.506 -1.596,1.506 C 0.7,1.506 0,0.829 0,0" style="fill: #ffffff;fill-opacity:1;fill-rule:nonzero;stroke:none;" id="path3521" inkscape:connector-curvature="0"/>
    </g>
    <path d="m 478.80809,561.10228 43.76851,0 0,-141.64752 -43.76851,0 0,141.64752 z" style="fill: #ffffff;fill-opacity:1;fill-rule:nonzero;stroke:none;" id="path3523" inkscape:connector-curvature="0"/>
    <g id="g3525" transform="matrix(16.441964,0,0,-16.441964,563.57457,369.92657)">
      <path d="m 0,0 c 0,-0.83 0.698,-1.506 1.559,-1.506 0.896,0 1.598,0.663 1.598,1.506 0,0.845 -0.702,1.506 -1.598,1.506 C 0.698,1.506 0,0.829 0,0" style="fill: #ffffff;fill-opacity:1;fill-rule:nonzero;stroke:none;" id="path3527" inkscape:connector-curvature="0"/>
    </g>
    <path d="m 567.792,561.10228 43.76851,0 0,-141.64752 -43.76851,0 0,141.64752 z" style="fill: #ffffff;fill-opacity:1;fill-rule:nonzero;stroke:none;" id="path3529" inkscape:connector-curvature="0"/>
    <g id="g3531" transform="matrix(16.441964,0,0,-16.441964,409.22254,357.09855)">
      <path d="m 0,0 -2.336,-9.154 c 0,0 -1.786,6.873 -2.076,7.845 -0.29,0.978 -0.889,1.406 -1.736,1.406 -0.848,0 -1.448,-0.428 -1.737,-1.406 -0.289,-0.972 -2.074,-7.845 -2.074,-7.845 L -12.298,0 -15.109,0 c 0,0 2.701,-9.766 3.067,-10.897 0.288,-0.882 0.965,-1.603 1.967,-1.603 1.149,0 1.684,0.835 1.932,1.603 0.247,0.763 1.995,7.215 1.995,7.215 0,0 1.748,-6.452 1.994,-7.215 0.248,-0.768 0.784,-1.603 1.931,-1.603 1.004,0 1.68,0.721 1.968,1.603 C 0.111,-9.766 2.812,0 2.812,0 L 0,0 z" style="fill: #ffffff;fill-opacity:1;fill-rule:nonzero;stroke:none;" id="path3533" inkscape:connector-curvature="0"/>
    </g>


  </g>
</svg>
